<?xml version="1.0" encoding="utf-8"?>
<!-- Generator: Adobe Illustrator 21.0.2, SVG Export Plug-In . SVG Version: 6.00 Build 0)  -->
<svg version="1.1" id="Layer_1" xmlns="http://www.w3.org/2000/svg" xmlns:xlink="http://www.w3.org/1999/xlink" x="0px" y="0px"
	 viewBox="0 0 800 600" style="enable-background:new 0 0 800 600;" xml:space="preserve">
<style type="text/css">
	.st0{fill:#4C4C4C;}
	.st1{fill:none;}
	.st2{fill:#FFFFFF;}
	.st3{fill:none;stroke:#EB2123;stroke-miterlimit:10;}
	.st4{fill:#EB2123;stroke:#EB2123;stroke-width:0.25;stroke-miterlimit:10;}
	.st5{font-family:'Rajdhani-Regular';}
	.st6{font-size:77.2628px;}
</style>
<rect class="st0" width="800" height="600"/>
<g>
	<g>
		<path class="st1" d="M345,286.7l9.3,9.6h31.8c-2.9-2.9-5.4-6-7.6-9.6H345z"/>
		<path class="st1" d="M413.9,296.2h30.8c0.1,0,0.4,0,0.7,0l9.3-9.6h-33.2C419.3,290.2,416.7,293.4,413.9,296.2z"/>
		<path class="st1" d="M428,257h52.6c0,0,0.4,0,0.7,0l8.7-9h-62C428.1,250.5,428.2,253.6,428,257z"/>
		<path class="st1" d="M309.7,248l8.7,9h52.7c-0.2-3.5-0.1-6.6,0-9H309.7z"/>
		<path class="st1" d="M371.4,261.3h-48.8l8.7,9h41.6c-0.1-0.6-0.3-1.1-0.4-1.7C372,266.1,371.6,263.6,371.4,261.3z"/>
		<path class="st1" d="M331.4,272.6l9.3,9.6h35.4c-1.5-3-2.7-6.2-3.7-9.6H331.4z"/>
		<path class="st1" d="M427,246.6c0-0.1,0-0.2,0-0.3"/>
		<path class="st1" d="M373.1,246.2c0,0.1,0,0.2,0,0.3"/>
		<path class="st1" d="M373,246.6c0,0.1,0,0.2,0,0.2c0,0.4-0.1,0.8-0.1,1.3c-0.3,4.8-0.3,12.2,1.3,20.1c3.1,15.4,10.7,26.8,22.6,34
			c0.8,0.5,1.6,1,2.5,1.4l0.4,0.2c0.1,0,0.2,0.1,0.2,0.1c0,0,0.1,0,0.1-0.1l0.4-0.2c0.8-0.4,1.5-0.8,2.2-1.2
			c12.1-7.2,19.9-18.7,23-34.3c0.6-2.8,1-5.8,1.2-8.9c-0.1-0.6,0-1.6,0.2-2.4c0.1-3,0.1-5.9,0-8.8v0c0-0.5-0.1-0.9-0.1-1.3
			c0-0.1,0-0.2,0-0.2"/>
		<path class="st1" d="M428.9,257h51.7c0,0,0.4,0,0.7,0l8.7-9h-61.1C429,251,429,254,428.9,257z"/>
		<path class="st1" d="M427.5,268.6c-0.1,0.6-0.3,1.2-0.4,1.7l41.3,0l8.7-9h-48.5C428.3,263.8,428,266.2,427.5,268.6z"/>
		<path class="st1" d="M423.9,282.1h35.1l9.3-9.6h-40.7C426.7,276,425.4,279.1,423.9,282.1z"/>
		<path class="st2" d="M427.1,246.8c0,0.4,0.1,0.8,0.1,1.3v0c0.2,2.9,0.2,5.9,0,8.8c-0.1,0.8-0.2,1.8-0.2,2.4
			c-0.2,3.1-0.6,6.1-1.2,8.9c-3.1,15.5-10.9,27.1-23,34.3c-0.7,0.4-1.4,0.8-2.2,1.2l-0.4,0.2c0,0-0.1,0-0.1,0.1
			c-0.1,0-0.2-0.1-0.2-0.1l-0.4-0.2c-0.8-0.5-1.7-0.9-2.5-1.4c-11.9-7.2-19.5-18.7-22.6-34c-1.6-8-1.6-15.3-1.3-20.1
			c0-0.5,0.1-0.9,0.1-1.3c0-0.1-66.4-0.1-66.4-0.1l11.3,11.6h53.3c0,0.5,0.1,1.1,0.1,1.7h-51.8l11.3,11.6h42.4
			c0.1,0.6,0.3,1.1,0.4,1.7h-41.3l11.3,11.6h34.5c0.3,0.6,0.6,1.1,0.9,1.7h-33.8l11.3,11.6h31.9c2.3,2.1,4.8,4,7.6,5.6
			c0.8,0.5,1.7,1,2.6,1.5l0.4,0.2c0.2,0.1,0.5,0.3,0.7,0.4l0.4,0.2l0.4-0.2c0.2-0.1,0.4-0.2,0.6-0.3l0.4-0.2
			c0.8-0.4,1.6-0.9,2.3-1.3c2.9-1.7,5.6-3.7,8-5.9h30.4c0.1,0,0.9,0,1,0l0.3,0l11.2-11.6h-33.5c0.3-0.5,0.6-1.1,0.9-1.7h34.2
			l11.3-11.6h-41c0.2-0.6,0.3-1.1,0.4-1.7h42.1l11.3-11.6h-51.5c0-0.2,0-0.4,0.1-0.6l0-0.1l0-0.2c0-0.1,0-0.4,0-0.7h51.9
			c0.1,0,0.9,0,1,0l0.3,0l11.2-11.6h-64.3C428.9,246.7,427.1,246.7,427.1,246.8z M371.3,257h-52.7l-8.7-9h61.4
			C371.2,250.5,371.1,253.5,371.3,257z M331.5,270.3l-8.7-9h48.8c0.2,2.3,0.6,4.8,1.1,7.3c0.1,0.6,0.3,1.2,0.4,1.7H331.5z
			 M344.3,283.6l-8.7-9h38.5c0.9,3.2,2.1,6.2,3.5,9H344.3z M357.2,296.8l-8.7-9H380c2,3.3,4.4,6.3,7.1,9H357.2z M451.5,287.8l-8.7,9
			c-0.3,0-0.6,0-0.7,0h-29c2.7-2.7,5.1-5.7,7.1-9H451.5z M464.4,274.6l-8.7,9h-33c1.4-2.8,2.6-5.8,3.5-9H464.4z M477.3,261.3l-8.7,9
			l-41.3,0c0.1-0.6,0.3-1.1,0.4-1.7c0.5-2.3,0.8-4.8,1.1-7.3H477.3z M490.1,248l-8.7,9c-0.3,0-0.6,0-0.7,0h-51.7c0.1-3,0.1-6,0-9
			H490.1z"/>
		<g>
			<polygon class="st3" points="415.1,247.5 424.4,260 400,296.9 375.6,260 384.9,247.5 			"/>
			<line class="st3" x1="375.6" y1="260" x2="424.4" y2="260"/>
			<polyline class="st3" points="384.9,247.5 400,296.9 415.1,247.5 			"/>
			<polygon class="st3" points="411.3,260 388.6,259.8 400.1,247.7 			"/>
		</g>
		<g>
			<path class="st2" d="M423.9,223.2l-11.8,4.6L400,210.4l-12.1,17.4l-11.8-4.6l2.8,17.6l0.1,0.6H421l0.1-0.6L423.9,223.2z
				 M422.9,224.5l-2.4,15.4l-7.9-11.4L422.9,224.5z M419.7,240.2l-18.6-7.3l10.7-4.2L419.7,240.2z M400,211.8l11.3,16.3l-11.3,4.4
				l-11.3-4.4L400,211.8z M398.9,233l-18.6,7.3l7.9-11.4L398.9,233z M387.5,228.5l-7.9,11.4l-2.4-15.4L387.5,228.5z M381.7,240.5
				l18.3-7.1l18.3,7.1H381.7z"/>
			<g>
				<path class="st2" d="M400,211.5c-1.5,0-2.7-1.2-2.7-2.7c0-1.5,1.2-2.7,2.7-2.7s2.7,1.2,2.7,2.7
					C402.7,210.3,401.5,211.5,400,211.5z M400,206.9c-1,0-1.9,0.9-1.9,1.9s0.9,1.9,1.9,1.9c1,0,1.9-0.9,1.9-1.9S401,206.9,400,206.9
					z"/>
			</g>
			<g>
				<path class="st2" d="M424.5,224.2c-1.2,0-2.2-1-2.2-2.2s1-2.2,2.2-2.2c1.2,0,2.2,1,2.2,2.2S425.7,224.2,424.5,224.2z
					 M424.5,220.6c-0.8,0-1.4,0.6-1.4,1.4c0,0.8,0.6,1.4,1.4,1.4c0.8,0,1.4-0.6,1.4-1.4C425.9,221.2,425.3,220.6,424.5,220.6z"/>
			</g>
			<g>
				<path class="st2" d="M375.5,224.2c-1.2,0-2.2-1-2.2-2.2s1-2.2,2.2-2.2c1.2,0,2.2,1,2.2,2.2S376.7,224.2,375.5,224.2z
					 M375.5,220.6c-0.8,0-1.4,0.6-1.4,1.4c0,0.8,0.6,1.4,1.4,1.4s1.4-0.6,1.4-1.4C376.9,221.2,376.3,220.6,375.5,220.6z"/>
			</g>
		</g>
	</g>
	<text transform="matrix(1 0 0 1 214.2246 369.6448)" class="st4 st5 st6">ELITE IMAGE</text>
</g>
</svg>
