<?xml version="1.0" encoding="utf-8"?>
<!-- Generator: Adobe Illustrator 21.0.2, SVG Export Plug-In . SVG Version: 6.00 Build 0)  -->
<svg version="1.1" id="Layer_1" xmlns="http://www.w3.org/2000/svg" xmlns:xlink="http://www.w3.org/1999/xlink" x="0px" y="0px"
	 viewBox="0 0 800 600" style="enable-background:new 0 0 800 600;" xml:space="preserve">
<style type="text/css">
	.st0{fill:#1A1A1A;}
	.st1{fill:none;}
	.st2{fill:#FFFFFF;}
	.st3{fill:none;stroke:#EB2123;stroke-miterlimit:10;}
	.st4{fill:#EB2123;stroke:#EB2123;stroke-width:0.25;stroke-miterlimit:10;}
	.st5{font-family:'Rajdhani-Regular';}
	.st6{font-size:77.2628px;}
</style>
<rect class="st0" width="800" height="600"/>
<g>
	<path class="st1" d="M340.7,287.6l10,10.3h34.4c-3.1-3.1-5.9-6.5-8.2-10.3H340.7z"/>
	<path class="st1" d="M415,297.9h33.3c0.1,0,0.5,0,0.8,0l10-10.3h-35.8C420.8,291.4,418.1,294.9,415,297.9z"/>
	<path class="st1" d="M430.2,255.6H487c0.1,0,0.4,0,0.7,0l9.4-9.7h-66.9C430.3,248.5,430.4,251.9,430.2,255.6z"/>
	<path class="st1" d="M302.6,245.9l9.4,9.7h56.8c-0.2-3.8-0.1-7.1,0-9.7H302.6z"/>
	<path class="st1" d="M369.2,260.2h-52.7l9.4,9.7h44.9c-0.1-0.6-0.3-1.2-0.4-1.9C369.8,265.4,369.4,262.7,369.2,260.2z"/>
	<path class="st1" d="M325.9,272.4l10,10.3h38.2c-1.6-3.2-2.9-6.7-4-10.3H325.9z"/>
	<path class="st1" d="M429.1,244.3c0-0.1,0-0.2,0-0.4"/>
	<path class="st1" d="M370.9,244c0,0.1,0,0.2,0,0.4"/>
	<path class="st1" d="M370.9,244.3c0,0.1,0,0.2,0,0.2c0,0.4-0.1,0.9-0.1,1.4c-0.3,5.2-0.3,13.1,1.4,21.7
		c3.3,16.6,11.5,28.9,24.4,36.7c0.9,0.5,1.8,1,2.7,1.5l0.5,0.2c0.1,0,0.2,0.1,0.3,0.1c0,0,0.1,0,0.1-0.1l0.4-0.2
		c0.9-0.5,1.7-0.9,2.4-1.3c13.1-7.8,21.5-20.2,24.8-37c0.6-3.1,1.1-6.3,1.3-9.6c-0.1-0.6,0-1.7,0.2-2.6c0.2-3.2,0.1-6.4,0-9.5v0
		c0-0.5-0.1-1-0.1-1.4c0-0.1,0-0.2,0-0.2"/>
	<path class="st1" d="M431.2,255.6H487c0.1,0,0.4,0,0.7,0l9.4-9.7h-66C431.3,249.1,431.3,252.4,431.2,255.6z"/>
	<path class="st1" d="M429.7,268.1c-0.1,0.6-0.3,1.3-0.4,1.9l44.6,0l9.4-9.7h-52.4C430.6,262.9,430.2,265.5,429.7,268.1z"/>
	<path class="st1" d="M425.8,282.7h37.9l10-10.3h-43.9C428.8,276,427.4,279.5,425.8,282.7z"/>
	<path class="st2" d="M429.3,244.6c0,0.4,0.1,0.9,0.1,1.4v0c0.2,3.1,0.2,6.3,0,9.5c-0.1,0.9-0.3,1.9-0.2,2.6
		c-0.3,3.3-0.7,6.5-1.3,9.6c-3.4,16.8-11.7,29.2-24.8,37c-0.7,0.4-1.5,0.9-2.4,1.3l-0.4,0.2c0,0-0.1,0-0.1,0.1
		c-0.1,0-0.2-0.1-0.3-0.1l-0.5-0.2c-0.9-0.5-1.8-1-2.7-1.5c-12.9-7.8-21.1-20.1-24.4-36.7c-1.7-8.6-1.7-16.6-1.4-21.7
		c0-0.5,0.1-1,0.1-1.4c0-0.1-71.7-0.1-71.7-0.1l12.1,12.5h57.5c0,0.6,0.1,1.2,0.1,1.8h-55.9l12.2,12.5h45.8c0.1,0.6,0.3,1.2,0.5,1.8
		h-44.5l12.2,12.5h37.2c0.3,0.6,0.7,1.2,1,1.8h-36.5l12.2,12.5h34.4c2.5,2.3,5.2,4.3,8.2,6.1c0.9,0.5,1.8,1.1,2.8,1.6l0.4,0.2
		c0.2,0.1,0.5,0.3,0.8,0.4l0.4,0.2l0.4-0.2c0.2-0.1,0.4-0.2,0.6-0.3l0.4-0.2c0.9-0.5,1.7-0.9,2.5-1.4c3.1-1.9,6-4,8.6-6.4h32.8
		c0.1,0,1,0,1,0l0.3,0l12.1-12.5h-36.2c0.3-0.6,0.7-1.2,1-1.8h36.9l12.1-12.5h-44.2c0.2-0.6,0.3-1.2,0.5-1.8h45.5l12.1-12.5h-55.6
		c0-0.2,0-0.5,0.1-0.7l0-0.1l-0.1-0.2c0-0.1,0-0.4,0-0.8h56c0.1,0,1,0,1,0l0.3,0l12.1-12.5h-69.4
		C431.2,244.5,429.3,244.5,429.3,244.6z M369,255.6h-56.8l-9.4-9.7H369C368.9,248.5,368.8,251.8,369,255.6z M326,269.9l-9.4-9.7
		h52.7c0.3,2.5,0.6,5.1,1.2,7.8c0.1,0.6,0.3,1.2,0.4,1.9H326z M339.9,284.2l-9.4-9.7h41.6c1,3.4,2.3,6.7,3.8,9.7H339.9z
		 M353.8,298.6l-9.4-9.7h34c2.2,3.6,4.8,6.8,7.7,9.7H353.8z M455.6,288.9l-9.4,9.7c-0.3,0-0.7,0-0.7,0h-31.3
		c2.9-2.9,5.5-6.1,7.7-9.7H455.6z M469.5,274.5l-9.4,9.7h-35.6c1.5-3,2.8-6.3,3.8-9.7H469.5z M483.4,260.2l-9.4,9.7l-44.6,0
		c0.1-0.6,0.3-1.2,0.4-1.9c0.5-2.5,0.9-5.2,1.2-7.8H483.4z M497.3,245.9l-9.4,9.7c-0.3,0-0.7,0-0.7,0h-55.8c0.2-3.2,0.1-6.5,0-9.7
		H497.3z"/>
	<g>
		<polygon class="st3" points="416.3,245.3 426.3,258.8 400,298.7 373.7,258.8 383.7,245.3 		"/>
		<line class="st3" x1="373.7" y1="258.8" x2="426.3" y2="258.8"/>
		<polyline class="st3" points="383.7,245.3 400,298.7 416.3,245.3 		"/>
		<polygon class="st3" points="412.2,258.8 387.7,258.5 400.1,245.5 		"/>
	</g>
	<g>
		<path class="st2" d="M425.8,219.1l-12.8,5l-13-18.8l-13,18.8l-12.8-5l3,19l0.1,0.6h45.4l0.1-0.6L425.8,219.1z M424.7,220.4
			l-2.6,16.6l-8.5-12.3L424.7,220.4z M421.3,237.5l-20.1-7.8l11.5-4.5L421.3,237.5z M400,206.8l12.2,17.6l-12.2,4.8l-12.2-4.8
			L400,206.8z M398.8,229.6l-20.1,7.8l8.6-12.3L398.8,229.6z M386.5,224.8l-8.5,12.3l-2.6-16.6L386.5,224.8z M380.3,237.8l19.7-7.7
			l19.7,7.7H380.3z"/>
		<g>
			<path class="st2" d="M400,206.5c-1.6,0-2.9-1.3-2.9-2.9s1.3-2.9,2.9-2.9c1.6,0,2.9,1.3,2.9,2.9S401.6,206.5,400,206.5z
				 M400,201.5c-1.1,0-2.1,0.9-2.1,2.1s0.9,2.1,2.1,2.1c1.1,0,2.1-0.9,2.1-2.1S401.1,201.5,400,201.5z"/>
		</g>
		<g>
			<path class="st2" d="M426.4,220.1c-1.3,0-2.4-1.1-2.4-2.4c0-1.3,1.1-2.4,2.4-2.4c1.3,0,2.4,1.1,2.4,2.4
				C428.8,219.1,427.8,220.1,426.4,220.1z M426.4,216.3c-0.8,0-1.5,0.7-1.5,1.5c0,0.8,0.7,1.5,1.5,1.5c0.8,0,1.5-0.7,1.5-1.5
				C427.9,216.9,427.3,216.3,426.4,216.3z"/>
		</g>
		<g>
			<path class="st2" d="M373.6,220.1c-1.3,0-2.4-1.1-2.4-2.4c0-1.3,1.1-2.4,2.4-2.4s2.4,1.1,2.4,2.4
				C375.9,219.1,374.9,220.1,373.6,220.1z M373.6,216.3c-0.8,0-1.5,0.7-1.5,1.5c0,0.8,0.7,1.5,1.5,1.5s1.5-0.7,1.5-1.5
				C375.1,216.9,374.4,216.3,373.6,216.3z"/>
		</g>
	</g>
	<text transform="matrix(1 0 0 1 78.8242 375.1057)" class="st4 st5 st6">Elite Image Detailing</text>
</g>
</svg>
